<?xml version="1.0" encoding="UTF-8"?>
<svg id="Layer_1" data-name="Layer 1" xmlns="http://www.w3.org/2000/svg" viewBox="0 0 293.09 177.24">
  <defs>
    <style>
      .cls-1 {
        fill: #fae4cd;
      }
    </style>
  </defs>
  <path class="cls-1" d="M175.09,52.37c-14.46,2.05-28.89,4.72-42.97,8.63l-.53-.98c.24-.69.94-4.54-.37-4.24l-35.98,12.03-.81,1.11-.96,13.69-1.19-7.21c-5-13.6-20.54-7.63-30.18-3.28-2.14.96-16.84,8.21-17.36,9.04-.73,1.18,1.29,9.28,1.61,11.37,2.01,13.22,3.93,26.46,5.81,39.69l-.77.7-32.79,6.09c5.73-7.81,12.06-15.23,17.67-23.13,2.52-3.56,7.52-10.18,9.25-13.8.22-.46.6-.77.41-1.4L6.12,76.14l-.92-1.39c.27-1.57,5.58-2.41,7-2.63,4.88-.75,10.01-.49,14.81-1.03,12.43-1.4,24.82-3.56,37.2-5.28l-16.84-39.11c.12-2.1,1.39-2.18,3.17-2.2,4.77-.05,18.15,7.82,23.43,10.2,7.83,3.54,15.82,6.86,23.82,9.99,4.83-9.88,9.35-20.05,14.82-29.6.87-1.52,4.08-7.41,5.02-8.18,5.36-4.43,13.68,9.41,15.79,12.98,4.57,7.75,8.58,15.94,12.88,23.84.74.18.77-.11,1.16-.51,3.44-3.46,6.77-8.23,10.1-11.98,6.9-7.76,15.58-18.08,23.54-24.46,1.97-1.58,3.55-3.37,6.01-1.72,7.93,5.31,10.6,33.08,18.22,41.3,2.85,3.07,5.13,1.83,8.74,1.06,13.47-2.88,27.06-8.44,40.5-11.82,4.82-1.21,14.42-5.13,9.71,3.47-1.47,2.68-8.41,13.33-10.25,15.19-.32.32-.5.79-1.03.89l-16.47,1.05.96-3.35-28.11,2.9c-8.84-6.04-19.24-5.52-28.11.15l-6.18,4.62v-8.16Z"/>
  <path class="cls-1" d="M197.16,118.61l-.95,6.72c.77.68,16.95-4.64,19.92-4.8,1.9-.1-.54,3.91.48,4.81l22.31-4.33,4.8,37.92-45.1-19.19-14.66,33.1-35.04-29.74c-4.01,4.13-8.07,8.26-12.01,12.47-4.31,4.6-8.28,9.7-12.7,14.18-3.52,3.57-5.27.01-7.41-3.17-4.42-6.59-6.75-14.69-10.76-21.4-.48-.8-1.26-2.54-2.22-2.56-2.11-.05-16.09,9.55-18.85,11.42-8.68,5.87-17.01,12.31-25.57,18.35l1.5-25.37c10.68-2.9,19.81-9.13,26.58-17.82l-1.67,12.73c.03.44.81.27,1.16.2,6.3-1.16,15.64-7.42,22.65-9.04,1.3-.3.43,2.07.66,2.83l25.71-10.53c.75-.18.75-.09.61.6-.15.75-1.21,5.1.31,4.64l22.75-9.18,1.03-26.81,1.5,10.74c4.21,18.04,19.77,24.17,34.97,13.26Z"/>
  <path class="cls-1" d="M80.05,100.84c12.13-3.67,14.4,5.48,10.49,15.06-4.88,11.97-17.73,22.55-30.35,25.24l-9.18-58.55c.68-1.19,19.44-9.88,21.95-10.67,25.26-7.94,16.6,18.03,7.1,28.93ZM69.01,90.05v10.8c.97.11,1.59-.81,2.17-1.43,2.67-2.88,5.44-7.48,5.04-11.53-2.58-.24-5.2.46-7.2,2.16ZM70.93,121.48c.55.65,7.44-5.16,8.14-6.01,1.27-1.55,2.81-3.75,1.48-5.78-1.92-1.35-8.49,1.91-10.38,3.15l.75,8.64Z"/>
  <path class="cls-1" d="M128.05,61.01c-.76,20.15,1.94,40.1,4.76,59.96l-16.75,6.76-.49-10.08-5.69,2.22-.13,7.31-16.73,6.3,7.27-62.56c.35-1.08,6.83-3.14,8.32-3.68,6.38-2.33,12.96-4.23,19.45-6.23ZM110.29,107.56c.3.3,4.51-.83,4.32-2.16l-1.44-29.04c-.81,0-.91,1.59-.96,2.15-.81,9.66-.96,19.4-1.91,29.04Z"/>
  <path class="cls-1" d="M223.57,85.48l7.45-1.43,6.04-24.44,17.71-1c-6.92,18.37-13.03,37.09-16.79,56.41l-14.41,3.11,4.55-22.57-7.2,1.44-3.2,17.2-14.31,3.44,11.07-58.28c.25-.53.63-.65,1.17-.75,5.14-.92,10.93-.68,16.07-1.92l-8.15,28.8Z"/>
  <path class="cls-1" d="M197.18,98.93l.98.28,2.41,9.57c-8.74,9.75-22.87,14.44-30.14.33-7.74-15.02-.57-38.15,12.11-48.57,9.33-7.66,23.22-8.67,28.98,3.52l-10.02,10.17c-11.18-7.57-20.71,13.68-20.69,22.06.02,11.06,12.2,11.39,16.37,2.65Z"/>
  <path class="cls-1" d="M171.73,56.69l.48,15.36-11.68,1.52-.72.72c-1.91,13.95-3.66,27.96-3.5,42.1l-13.86,5.58,2.4-44.64-9.6,2.4-2.88-15.36,39.36-7.68Z"/>
  <path class="cls-1" d="M287.89,99.4l-44.64,10.08c-.56-.56,3.07-13.5,3.6-15.36.56-1.98,4.5-15.11,5.32-15.32,6.86,2.42,13.29,5.97,19.55,9.65,5.5,3.23,11.33,6.9,16.17,10.94Z"/>
  <path class="cls-1" d="M201.49,97c-1.23.2-.75-.1-1-.67-.82-1.83-1.18-4.32-1.85-6.25l-.98-.27c-1.64,2.74-3.68,6.01-5.78,8.38-1.88,2.12-5.4,6.07-7.22,1.49-1.11-2.8.72-7.93,1.87-10.68s5.84-11.78,9.67-9.99l3.59,3.59,5.05-4.79-3.36,19.2Z"/>
  <polygon class="cls-1" points="138.61 85.01 136.21 121.96 131.89 86.94 138.61 85.01"/>
  <polygon class="cls-1" points="91.56 98.93 88.24 97.45 88.2 96.8 91.59 89.1 93 83.57 91.56 98.93"/>
  <polygon class="cls-1" points="164.05 79.25 162.13 85.48 162.6 79.53 164.05 79.25"/>
</svg>